<svg width="44" height="44" viewBox="0 0 44 44" fill="none" xmlns="http://www.w3.org/2000/svg">
<circle cx="22" cy="22" r="22" fill="#F2F8FF"/>
<path d="M22 11.4399C20.9406 11.4399 20.08 12.3006 20.08 13.3599C20.08 14.2524 20.695 14.9968 21.52 15.2124V16.7199H17.215C15.0888 16.7199 13.36 18.4487 13.36 20.5749V22.4799H10.96V28.2399H13.36V32.5599H30.64V28.2399H33.04V22.4799H30.64V20.5749C30.64 18.4487 28.9113 16.7199 26.785 16.7199H22.48V15.2124C23.3069 14.9968 23.92 14.2524 23.92 13.3599C23.92 12.3006 23.0594 11.4399 22 11.4399ZM22 12.3999C22.5288 12.3999 22.96 12.8312 22.96 13.3599C22.96 13.8887 22.5288 14.3199 22 14.3199C21.4713 14.3199 21.04 13.8887 21.04 13.3599C21.04 12.8312 21.4713 12.3999 22 12.3999ZM17.215 17.6799H26.785C28.3806 17.6799 29.68 18.9793 29.68 20.5749V31.5999H26.8V27.7599H17.2V31.5999H14.32V20.5749C14.32 18.9793 15.6194 17.6799 17.215 17.6799ZM18.88 20.5599C17.6894 20.5599 16.72 21.5293 16.72 22.7199C16.72 23.9106 17.6894 24.8799 18.88 24.8799C20.0706 24.8799 21.04 23.9106 21.04 22.7199C21.04 21.5293 20.0706 20.5599 18.88 20.5599ZM25.12 20.5599C23.9294 20.5599 22.96 21.5293 22.96 22.7199C22.96 23.9106 23.9294 24.8799 25.12 24.8799C26.3106 24.8799 27.28 23.9106 27.28 22.7199C27.28 21.5293 26.3106 20.5599 25.12 20.5599ZM18.88 21.5199C19.5419 21.5199 20.08 22.0581 20.08 22.7199C20.08 23.3818 19.5419 23.9199 18.88 23.9199C18.2181 23.9199 17.68 23.3818 17.68 22.7199C17.68 22.0581 18.2181 21.5199 18.88 21.5199ZM25.12 21.5199C25.7819 21.5199 26.32 22.0581 26.32 22.7199C26.32 23.3818 25.7819 23.9199 25.12 23.9199C24.4581 23.9199 23.92 23.3818 23.92 22.7199C23.92 22.0581 24.4581 21.5199 25.12 21.5199ZM11.92 23.4399H13.36V27.2799H11.92V23.4399ZM30.64 23.4399H32.08V27.2799H30.64V23.4399ZM18.16 28.7199H20.08V31.5999H18.16V28.7199ZM21.04 28.7199H22.96V31.5999H21.04V28.7199ZM23.92 28.7199H25.84V31.5999H23.92V28.7199Z" fill="#0070F0"/>
</svg>
